:SAMPLES-PER-SECOND 30
:FULLY-SPECIFIED
:DEGREES
543
root  -3.22738 41.0508 -0.334722 136.685 -89.3798 -135.896
RightUpLeg  3.85946 -1.27311 -0.0326077
RightLeg  -6.35718 -22.6932 3.94986
RightFoot  1.91939 -0.115206 1.12081
RightToes  -3.10678e-008 1.75238e-005 3.56266e-009
Spine  9.02774 -4.11984 -10.7642
Spine1  -12.6029 -5.37783 13.0714
HEad  4.25584 -5.22078 3.25424
LeftShoulder1  0.864865 -0.235706 -16.3693
LeftArm  -28.0392 -22.4122 -38.8508
LeftForeArm  40.2702 -66.1 -21.5069
LeftHand  -0.685144 -4.33858 8.45909
RightShoulder  1.02968 0.787176 17.4719
RightArm  -7.60546 8.14784 46.7829
RightForeArm  64.9211 78.7945 63.2152
RightHand  -0.339785 8.68474 -3.18119
LeftUpLeg  3.39073 1.36071 2.83332
LeftLeg  -5.45873 18.5199 -2.01987
LeftFoot  2.09095 0.36574 -3.21332
LeftToes  4.7643e-008 1.47522e-008 1.32869e-009
544
root  -3.27464 41.0514 -0.289519 134.861 -89.3191 -134.078
RightUpLeg  3.97435 -1.26699 -0.0513675
RightLeg  -6.42716 -22.6501 3.96207
RightFoot  1.92352 -0.119372 1.16973
RightToes  -3.10678e-008 1.75238e-005 3.56266e-009
Spine  8.81315 -4.18544 -9.45142
Spine1  -12.5749 -5.29271 11.7711
HEad  3.96466 -4.48986 3.82517
LeftShoulder1  0.983325 -0.640857 -17.0422
LeftArm  -27.5293 -16.5861 -38.9226
LeftForeArm  42.0231 -67.2639 -22.7366
LeftHand  -0.641983 -4.77496 7.61991
RightShoulder  0.974756 0.638598 16.9731
RightArm  -9.98913 12.2089 46.7188
RightForeArm  67.5516 79.0673 66.9545
RightHand  -0.347594 8.50937 -3.2779
LeftUpLeg  3.4256 1.34441 2.79549
LeftLeg  -5.3488 18.5864 -1.95205
LeftFoot  1.95647 0.36696 -3.25428
LeftToes  4.7643e-008 1.47522e-008 1.32869e-009
545
root  -3.31148 41.0518 -0.25775 150.78 -89.1442 -149.957
RightUpLeg  3.86019 -1.24549 -0.127944
RightLeg  -6.1923 -22.4086 3.73453
RightFoot  1.86396 -0.126155 1.2638
RightToes  -3.10678e-008 1.75238e-005 3.56266e-009
Spine  8.70564 -4.16676 -8.4221
Spine1  -12.6349 -5.14768 10.681
HEad  2.98494 -3.12039 4.80606
LeftShoulder1  0.980324 -0.554772 -17.4971
LeftArm  -28.2241 -11.8248 -39.3166
LeftForeArm  42.3717 -66.3882 -21.5866
LeftHand  -0.65456 -4.95555 7.63501
RightShoulder  0.961673 0.644469 16.587
RightArm  -12.5585 15.8941 46.4371
RightForeArm  68.667 79.1776 69.0866
RightHand  -0.331062 7.99417 -3.23696
LeftUpLeg  3.57081 1.25601 2.6471
LeftLeg  -5.56035 18.9721 -2.03639
LeftFoot  1.96856 0.364642 -3.22791
LeftToes  4.7643e-008 1.47522e-008 1.32869e-009
546
root  -3.36108 41.052 -0.24382 163.255 -88.8242 -162.524
RightUpLeg  3.99231 -1.28006 -0.210126
RightLeg  -6.15422 -21.977 3.63718
RightFoot  1.85834 -0.12473 1.23705
RightToes  -3.10678e-008 1.75238e-005 3.56266e-009
Spine  8.78817 -3.98396 -7.30418
Spine1  -12.9343 -4.80855 9.26993
HEad  2.02907 -3.04179 5.50865
LeftShoulder1  0.985588 -0.560994 -17.5984
LeftArm  -30.1737 -7.86329 -39.5592
LeftForeArm  41.7358 -64.4508 -19.4714
LeftHand  -0.729465 -5.24991 8.2648
RightShoulder  0.892943 0.383589 16.3609
RightArm  -14.8062 18.1521 45.8079
RightForeArm  67.1299 79.0637 67.621
RightHand  -0.377427 8.22301 -3.58967
LeftUpLeg  3.97279 1.2102 2.53701
LeftLeg  -5.94016 19.4073 -2.19002
LeftFoot  2.00644 0.35685 -3.11477
LeftToes  4.7643e-008 1.47522e-008 1.32869e-009
547
root  -3.39709 41.0519 -0.237973 166.61 -88.633 -165.774
RightUpLeg  3.94259 -1.28556 -0.248905
RightLeg  -6.20865 -21.7387 3.62245
RightFoot  1.8984 -0.124025 1.22997
RightToes  -3.10678e-008 1.75238e-005 3.56266e-009
Spine  8.86028 -3.94492 -6.52299
Spine1  -13.2612 -4.64868 8.25535
HEad  1.28083 -1.99334 6.10868
LeftShoulder1  0.914929 -0.270018 -17.5917
LeftArm  -32.666 -4.49635 -39.5724
LeftForeArm  40.9868 -62.8659 -18.014
LeftHand  -0.743027 -4.59264 8.92084
RightShoulder  0.824498 0.101829 16.2596
RightArm  -16.8066 19.7523 44.983
RightForeArm  62.8023 78.6872 63.2924
RightHand  -0.323814 8.52005 -3.07923
LeftUpLeg  3.93177 1.16742 2.46897
LeftLeg  -5.95207 19.7261 -2.218
LeftFoot  1.99049 0.351038 -3.031
LeftToes  4.7643e-008 1.47522e-008 1.32869e-009
548
root  -3.42749 41.0516 -0.243483 168.288 -88.3951 -167.318
RightUpLeg  3.80322 -1.21909 -0.201843
RightLeg  -6.17033 -21.5728 3.55997
RightFoot  1.9006 -0.123264 1.23251
RightToes  -3.10678e-008 1.75238e-005 3.56266e-009
Spine  8.32165 -3.79098 -6.06011
Spine1  -12.62 -4.4618 7.60095
HEad  -0.326965 -1.46637 6.5951
LeftShoulder1  0.817922 0.145153 -17.7055
LeftArm  -34.7456 -1.7346 -39.1303
LeftForeArm  40.8704 -62.2215 -17.4703
LeftHand  -0.743708 -4.29521 9.18519
RightShoulder  0.833074 0.131295 16.3129
RightArm  -18.883 20.6222 43.3269
RightForeArm  58.2335 78.2123 59.0634
RightHand  -0.280571 8.53318 -2.71991
LeftUpLeg  3.78438 1.12509 2.45727
LeftLeg  -5.78897 20.0198 -2.13877
LeftFoot  1.89165 0.349746 -3.01618
LeftToes  4.7643e-008 1.47522e-008 1.32869e-009
